<svg xmlns="http://www.w3.org/2000/svg" viewBox="0 0 32 32">
  <defs>
    <linearGradient id="glow" x1="0%" y1="0%" x2="100%" y2="100%">
      <stop offset="0%" style="stop-color:#f07048;stop-opacity:1" />
      <stop offset="100%" style="stop-color:#e85a30;stop-opacity:1" />
    </linearGradient>
  </defs>

  <!-- Background -->
  <rect width="32" height="32" rx="6" fill="#1e1e1e"/>

  <!-- 4x4 Step grid - Classic groove pattern -->
  <!-- Row 1: HiHat x-x-x-x- (all on) -->
  <rect x="4" y="4" width="5" height="5" rx="1" fill="url(#glow)"/>
  <rect x="10.5" y="4" width="5" height="5" rx="1" fill="url(#glow)"/>
  <rect x="17" y="4" width="5" height="5" rx="1" fill="url(#glow)"/>
  <rect x="23.5" y="4" width="5" height="5" rx="1" fill="url(#glow)"/>

  <!-- Row 2: Snare (beats 2 and 4) -->
  <rect x="4" y="10.5" width="5" height="5" rx="1" fill="#3a3a3a"/>
  <rect x="10.5" y="10.5" width="5" height="5" rx="1" fill="url(#glow)"/>
  <rect x="17" y="10.5" width="5" height="5" rx="1" fill="#3a3a3a"/>
  <rect x="23.5" y="10.5" width="5" height="5" rx="1" fill="url(#glow)"/>

  <!-- Row 3: Tom (silent) -->
  <rect x="4" y="17" width="5" height="5" rx="1" fill="#3a3a3a"/>
  <rect x="10.5" y="17" width="5" height="5" rx="1" fill="#3a3a3a"/>
  <rect x="17" y="17" width="5" height="5" rx="1" fill="#3a3a3a"/>
  <rect x="23.5" y="17" width="5" height="5" rx="1" fill="#3a3a3a"/>

  <!-- Row 4: Kick (beats 1 and 3) -->
  <rect x="4" y="23.5" width="5" height="5" rx="1" fill="url(#glow)"/>
  <rect x="10.5" y="23.5" width="5" height="5" rx="1" fill="#3a3a3a"/>
  <rect x="17" y="23.5" width="5" height="5" rx="1" fill="url(#glow)"/>
  <rect x="23.5" y="23.5" width="5" height="5" rx="1" fill="#3a3a3a"/>
</svg>
